# xmcd
#
# Track frame offsets: 
#        150
#        14520
#        24490
#        36975
#        47020
#        58990
#        74130
#        91920
#        102512
#        122492
#
# Disc length: 1859 seconds
#
# Revision: 0
# Processed by: cddbd v1.5.2PL0 Copyright (c) Steve Scherf et al.
# Submitted via: ExactAudioCopy v1.0b3
#
DISCID=8d07410a
DTITLE=Glen Campbell - Golden Hits
DYEAR=1996
DGENRE=Country
TTITLE0=Rhinestone Cowboy
TTITLE1=Gentle On My Mind
TTITLE2=By The Time I Get To Phoenix
TTITLE3=Dreams of the Everyday Housewife
TTITLE4=Only Make Believe
TTITLE5=Crying
TTITLE6=Southern Nights
TTITLE7=Try A Little Kindness
TTITLE8=Medley - Wichita Lineman, Galveston, Country Boy
TTITLE9=Please Come to Boston
EXTD=
EXTT0=
EXTT1=
EXTT2=
EXTT3=
EXTT4=
EXTT5=
EXTT6=
EXTT7=
EXTT8=
EXTT9=
PLAYORDER=
